<mxfile host="app.diagrams.net" modified="2023-02-17T07:01:00.458Z" agent="5.0 (Macintosh; Intel Mac OS X 10_15_7) AppleWebKit/537.36 (KHTML, like Gecko) Chrome/109.0.0.0 Safari/537.36" etag="bYdYidZX9p6OR3Yrlf1a" version="20.8.20" type="github">
  <diagram name="第 1 页" id="lrrHZ4swdHIC2B0YfNaa">
    <mxGraphModel dx="823" dy="544" grid="1" gridSize="10" guides="1" tooltips="1" connect="1" arrows="1" fold="1" page="1" pageScale="1" pageWidth="827" pageHeight="1169" math="0" shadow="0">
      <root>
        <mxCell id="0" />
        <mxCell id="1" parent="0" />
        <mxCell id="4T8ELLFSV2IHGSas_9KA-9" style="edgeStyle=orthogonalEdgeStyle;rounded=0;orthogonalLoop=1;jettySize=auto;html=1;exitX=0.5;exitY=1;exitDx=0;exitDy=0;entryX=0.5;entryY=0;entryDx=0;entryDy=0;" edge="1" parent="1" source="4T8ELLFSV2IHGSas_9KA-1" target="4T8ELLFSV2IHGSas_9KA-4">
          <mxGeometry relative="1" as="geometry" />
        </mxCell>
        <mxCell id="4T8ELLFSV2IHGSas_9KA-1" value="check" style="rounded=1;whiteSpace=wrap;html=1;" vertex="1" parent="1">
          <mxGeometry x="140" y="100" width="120" height="60" as="geometry" />
        </mxCell>
        <mxCell id="4T8ELLFSV2IHGSas_9KA-7" style="edgeStyle=orthogonalEdgeStyle;rounded=0;orthogonalLoop=1;jettySize=auto;html=1;exitX=0.5;exitY=1;exitDx=0;exitDy=0;entryX=0.5;entryY=0;entryDx=0;entryDy=0;" edge="1" parent="1" source="4T8ELLFSV2IHGSas_9KA-2" target="4T8ELLFSV2IHGSas_9KA-4">
          <mxGeometry relative="1" as="geometry" />
        </mxCell>
        <mxCell id="4T8ELLFSV2IHGSas_9KA-2" value="checkv2" style="rounded=1;whiteSpace=wrap;html=1;" vertex="1" parent="1">
          <mxGeometry x="460" y="100" width="120" height="60" as="geometry" />
        </mxCell>
        <mxCell id="4T8ELLFSV2IHGSas_9KA-11" style="edgeStyle=orthogonalEdgeStyle;rounded=0;orthogonalLoop=1;jettySize=auto;html=1;exitX=0.5;exitY=1;exitDx=0;exitDy=0;" edge="1" parent="1" source="4T8ELLFSV2IHGSas_9KA-3" target="4T8ELLFSV2IHGSas_9KA-5">
          <mxGeometry relative="1" as="geometry" />
        </mxCell>
        <mxCell id="4T8ELLFSV2IHGSas_9KA-12" style="edgeStyle=orthogonalEdgeStyle;rounded=0;orthogonalLoop=1;jettySize=auto;html=1;exitX=0.5;exitY=1;exitDx=0;exitDy=0;entryX=0.5;entryY=0;entryDx=0;entryDy=0;" edge="1" parent="1" source="4T8ELLFSV2IHGSas_9KA-3" target="4T8ELLFSV2IHGSas_9KA-6">
          <mxGeometry relative="1" as="geometry" />
        </mxCell>
        <mxCell id="4T8ELLFSV2IHGSas_9KA-3" value="拉环比数据" style="rounded=1;whiteSpace=wrap;html=1;" vertex="1" parent="1">
          <mxGeometry x="294" y="300" width="120" height="60" as="geometry" />
        </mxCell>
        <mxCell id="4T8ELLFSV2IHGSas_9KA-10" value="" style="edgeStyle=orthogonalEdgeStyle;rounded=0;orthogonalLoop=1;jettySize=auto;html=1;" edge="1" parent="1" source="4T8ELLFSV2IHGSas_9KA-4" target="4T8ELLFSV2IHGSas_9KA-3">
          <mxGeometry relative="1" as="geometry" />
        </mxCell>
        <mxCell id="4T8ELLFSV2IHGSas_9KA-4" value="拉数据" style="rounded=1;whiteSpace=wrap;html=1;" vertex="1" parent="1">
          <mxGeometry x="294" y="210" width="120" height="60" as="geometry" />
        </mxCell>
        <mxCell id="4T8ELLFSV2IHGSas_9KA-14" style="edgeStyle=orthogonalEdgeStyle;rounded=0;orthogonalLoop=1;jettySize=auto;html=1;entryX=0.5;entryY=0;entryDx=0;entryDy=0;" edge="1" parent="1" source="4T8ELLFSV2IHGSas_9KA-5" target="4T8ELLFSV2IHGSas_9KA-13">
          <mxGeometry relative="1" as="geometry" />
        </mxCell>
        <mxCell id="4T8ELLFSV2IHGSas_9KA-5" value="比较" style="rounded=1;whiteSpace=wrap;html=1;" vertex="1" parent="1">
          <mxGeometry x="160" y="400" width="120" height="60" as="geometry" />
        </mxCell>
        <mxCell id="4T8ELLFSV2IHGSas_9KA-16" style="edgeStyle=orthogonalEdgeStyle;rounded=0;orthogonalLoop=1;jettySize=auto;html=1;exitX=0;exitY=0.5;exitDx=0;exitDy=0;entryX=0.5;entryY=0;entryDx=0;entryDy=0;" edge="1" parent="1" source="4T8ELLFSV2IHGSas_9KA-6" target="4T8ELLFSV2IHGSas_9KA-13">
          <mxGeometry relative="1" as="geometry" />
        </mxCell>
        <mxCell id="4T8ELLFSV2IHGSas_9KA-6" value="比较" style="rounded=1;whiteSpace=wrap;html=1;" vertex="1" parent="1">
          <mxGeometry x="460" y="400" width="120" height="60" as="geometry" />
        </mxCell>
        <mxCell id="4T8ELLFSV2IHGSas_9KA-13" value="创建alarm" style="rounded=1;whiteSpace=wrap;html=1;" vertex="1" parent="1">
          <mxGeometry x="294" y="520" width="120" height="60" as="geometry" />
        </mxCell>
      </root>
    </mxGraphModel>
  </diagram>
</mxfile>
